<svg width="19" height="12" viewBox="0 0 19 12" fill="none" xmlns="http://www.w3.org/2000/svg">
<path d="M15.44 2.16C14.512 1.264 13.352 0.816 11.96 0.816C11.016 0.816 10.184 1.016 9.464 1.416C8.728 1.816 8.216 2.352 7.928 3.024C7.608 2.384 7.064 1.856 6.296 1.44C5.528 1.024 4.704 0.816 3.824 0.816C1.28 0.816 0.00799847 2.368 0.00799847 5.472V12H3.296V6.384C3.296 5.344 3.44 4.616 3.728 4.2C4 3.768 4.472 3.552 5.144 3.552C6.216 3.552 7.064 3.96 7.688 4.776L7.712 12H10.976V6C10.976 5.088 11.136 4.456 11.456 4.104C11.76 3.736 12.304 3.552 13.088 3.552C13.968 3.552 14.664 3.76 15.176 4.176V12H18.44V1.104H15.656L15.44 2.16Z" fill="white"/>
</svg>
